<svg xmlns="http://www.w3.org/2000/svg" width="24" height="24" viewBox="0 0 24 24" fill="none" stroke="#64B5F6" stroke-width="2" stroke-linecap="round" stroke-linejoin="round" class="lucide lucide-hand-coins"><path d="M11 15h2a2 2 0 1 0 0-4h-3c-.6 0-1.1.2-1.4.6L3 17"/><path d="m7 21 1.6-1.4c.3-.4.8-.6 1.4-.6h4c1.1 0 2.1-.4 2.8-1.2l4.6-4.4a2 2 0 0 0-2.7-2.9l-4.2 4.2c-.3.3-.7.5-1.2.5h-2a2 2 0 0 1-2-2v-2c0-.6-.2-1.1-.6-1.4L5 5"/><path d="M2 12h3"/><path d="M14 12h3"/><path d="M12 2v3"/><path d="M12 17v3"/><circle cx="16" cy="7" r="1"/><circle cx="20" cy="11" r="1"/></svg>
